<?xml version="1.0" encoding="UTF-8"?>
<svg width="120px" height="119px" viewBox="0 0 120 119" version="1.1" xmlns="http://www.w3.org/2000/svg" xmlns:xlink="http://www.w3.org/1999/xlink">
    <!-- Generator: Sketch 43.2 (39069) - http://www.bohemiancoding.com/sketch -->
    <title>lab0x0-small-square-en</title>
    <desc>Created with Sketch.</desc>
    <defs></defs>
    <g id="Page-1" stroke="none" stroke-width="1" fill="none" fill-rule="evenodd">
        <g id="logos" transform="translate(-1064.000000, -146.000000)">
            <g id="small-size" transform="translate(889.000000, 28.000000)">
                <g id="Group-2-Copy" transform="translate(160.000000, 74.000000)">
                    <g id="small-square-en" transform="translate(15.206897, 44.000000)">
                        <rect id="Rectangle-4" fill="#000000" x="0" y="0" width="119" height="119"></rect>
                        <path d="M47.9130847,92 L35.5380847,92 L35.5380847,69.2641602 L38.1806628,69.2641602 L38.1806628,89.6958008 L47.9130847,89.6958008 L47.9130847,92 Z M70.1655261,92 L67.3940417,92 L64.8803698,84.0400391 L57.4199206,84.0400391 L54.8740222,92 L52.1347644,92 L59.562987,69.2641602 L62.7373034,69.2641602 L70.1655261,92 Z M64.1230456,81.7358398 L61.1420886,72.3256836 L58.1772448,81.7358398 L64.1230456,81.7358398 Z M83.6523425,79.5283203 C85.1669985,79.8828143 86.3539983,80.5703074 87.2133776,81.5908203 C88.0727569,82.6113332 88.5024401,83.8251883 88.5024401,85.2324219 C88.5024401,87.2949322 87.7531801,88.9384704 86.2546374,90.1630859 C84.7560948,91.3877014 82.9541108,92 80.8486315,92 L74.3872058,92 L74.3872058,69.2641602 L80.6874987,69.2641602 C82.8789159,69.2641602 84.5922777,69.7448682 85.8276355,70.7062988 C87.0629932,71.6677294 87.6806628,73.023917 87.6806628,74.7749023 C87.6806628,75.8491265 87.3234886,76.8051716 86.6091296,77.6430664 C85.8947706,78.4809612 84.9091847,79.0878887 83.6523425,79.4638672 L83.6523425,79.5283203 Z M77.0297839,78.3037109 L80.1235339,78.3037109 C83.3569485,78.3037109 84.9736315,77.1489373 84.9736315,74.8393555 C84.9736315,73.7866158 84.5761746,72.9782743 83.7812487,72.4143066 C82.9863229,71.850339 81.8208072,71.5683594 80.2846667,71.5683594 L77.0297839,71.5683594 L77.0297839,78.3037109 Z M77.0297839,89.6958008 L80.0268542,89.6958008 C81.7778395,89.6958008 83.1662534,89.2983438 84.1921374,88.503418 C85.2180214,87.7084921 85.7309558,86.618171 85.7309558,85.2324219 C85.7309558,83.7607348 85.226078,82.6220743 84.2163073,81.8164062 C83.2065367,81.0107382 81.7456138,80.6079102 79.8334948,80.6079102 L77.0297839,80.6079102 L77.0297839,89.6958008 Z" id="LAB" fill="#FFFFFF"></path>
                        <g id="Group" transform="translate(28.238871, 30.111111)" fill="#FFFFFF">
                            <path d="M36.0598066,21.8388512 L33.4472218,17.9991432 L30.7686626,21.8388512 C30.381611,22.3754454 30.0539416,22.7580929 29.7856446,22.9868051 C29.5173475,23.2155174 29.1764833,23.3298718 28.7630419,23.3298718 C28.3056174,23.3298718 27.9163725,23.1869288 27.5952957,22.9010385 C27.2742188,22.6151481 27.1136828,22.2874787 27.1136828,21.9180204 C27.1136828,21.5397655 27.3599846,20.9987811 27.8525957,20.2950511 L31.1117293,15.6240661 L28.2220521,11.7315786 C27.7206444,11.0894249 27.4699444,10.5308475 27.4699444,10.0558297 C27.4699444,9.68637144 27.6194848,9.36529941 27.91857,9.09260401 C28.2176553,8.81990861 28.6090993,8.68356295 29.0929137,8.68356295 C29.5151518,8.68356295 29.8648124,8.80231562 30.1419061,9.03982452 C30.4189998,9.27733342 30.742271,9.65118441 31.1117293,10.1613887 L33.4472218,13.3545479 L35.7167399,10.1613887 C36.0949948,9.63359116 36.4226642,9.25534192 36.6997579,9.02662964 C36.9768517,8.79791737 37.322114,8.68356295 37.7355555,8.68356295 C38.2105733,8.68356295 38.6042164,8.81770948 38.9164966,9.08600657 C39.2287768,9.35430366 39.3849146,9.67757481 39.3849146,10.0558297 C39.3849146,10.3285251 39.32114,10.5902208 39.1935889,10.8409247 C39.0660378,11.0916285 38.8703158,11.3885102 38.6064171,11.7315786 L35.7167399,15.6240661 L38.9758735,20.2950511 C39.4860778,21.025171 39.7411761,21.5749519 39.7411761,21.9444102 C39.7411761,22.3226651 39.5828392,22.6481354 39.2661607,22.9208308 C38.9494822,23.1935262 38.5580382,23.3298718 38.091817,23.3298718 C37.6783756,23.3298718 37.328715,23.2111192 37.0428246,22.9736103 C36.7569343,22.7361014 36.4292649,22.3578521 36.0598066,21.8388512 Z" id="x-copy"></path>
                            <path d="M9.70895191,0.409748264 C12.6664667,0.409748264 14.9406822,1.68053634 16.5316668,4.22215061 C18.1226513,6.76376488 18.9181316,10.3318737 18.9181316,14.9265842 C18.9181316,19.3760596 18.1457565,22.9045594 16.6009832,25.5121897 C15.0562098,28.1198199 12.758889,29.4236155 9.70895191,29.4236155 C6.76464031,29.4236155 4.49372552,28.1561281 2.89613941,25.6211155 C1.2985533,23.0861028 0.499772223,19.5212947 0.499772223,14.9265842 C0.499772223,10.4639056 1.27544806,6.92880427 2.826823,4.32117405 C4.37819795,1.71354382 6.67221798,0.409748264 9.70895191,0.409748264 Z M9.70895191,26.5717405 C11.6630242,26.5717405 13.1120527,25.6442302 14.0560808,23.7891819 C15.000109,21.9341335 15.472116,18.9799638 15.472116,14.9265842 C15.472116,10.8600014 15.000109,7.90583169 14.0560808,6.06398655 C13.1120527,4.2221414 11.6630242,3.30123264 9.70895191,3.30123264 C7.78128602,3.30123264 6.34215979,4.24524664 5.39153004,6.13330295 C4.44090028,8.02135927 3.96559254,10.9524237 3.96559254,14.9265842 C3.96559254,18.9535575 4.43759953,21.9011256 5.38162769,23.7693772 C6.32565585,25.6376287 7.76808283,26.5717405 9.70895191,26.5717405 Z M9.62973316,11.9558811 C10.4615342,11.9558811 11.1645936,12.2430462 11.7389324,12.817385 C12.3132712,13.3917238 12.6004363,14.0947832 12.6004363,14.9265842 C12.6004363,15.7847916 12.3099704,16.5208585 11.72903,17.1348069 C11.1480896,17.7487552 10.448331,18.0557248 9.62973316,18.0557248 C8.82433851,18.0557248 8.13448213,17.7487552 7.56014332,17.1348069 C6.98580451,16.5208585 6.69863941,15.7847916 6.69863941,14.9265842 C6.69863941,14.08158 6.97920301,13.3752199 7.54033863,12.8074826 C8.10147425,12.2397454 8.79793213,11.9558811 9.62973316,11.9558811 Z M56.3648357,0.409748264 C59.3223505,0.409748264 61.596566,1.68053634 63.1875505,4.22215061 C64.7785351,6.76376488 65.5740154,10.3318737 65.5740154,14.9265842 C65.5740154,19.3760596 64.8016403,22.9045594 63.2568669,25.5121897 C61.7120936,28.1198199 59.4147728,29.4236155 56.3648357,29.4236155 C53.4205241,29.4236155 51.1496093,28.1561281 49.5520232,25.6211155 C47.9544371,23.0861028 47.155656,19.5212947 47.155656,14.9265842 C47.155656,10.4639056 47.9313318,6.92880427 49.4827068,4.32117405 C51.0340817,1.71354382 53.3281018,0.409748264 56.3648357,0.409748264 Z M56.3648357,26.5717405 C58.318908,26.5717405 59.7679364,25.6442302 60.7119646,23.7891819 C61.6559928,21.9341335 62.1279998,18.9799638 62.1279998,14.9265842 C62.1279998,10.8600014 61.6559928,7.90583169 60.7119646,6.06398655 C59.7679364,4.2221414 58.318908,3.30123264 56.3648357,3.30123264 C54.4371698,3.30123264 52.9980436,4.24524664 52.0474138,6.13330295 C51.0967841,8.02135927 50.6214763,10.9524237 50.6214763,14.9265842 C50.6214763,18.9535575 51.0934833,21.9011256 52.0375115,23.7693772 C52.9815396,25.6376287 54.4239666,26.5717405 56.3648357,26.5717405 Z M56.2856169,11.9558811 C57.117418,11.9558811 57.8204773,12.2430462 58.3948162,12.817385 C58.969155,13.3917238 59.2563201,14.0947832 59.2563201,14.9265842 C59.2563201,15.7847916 58.9658542,16.5208585 58.3849138,17.1348069 C57.8039734,17.7487552 57.1042148,18.0557248 56.2856169,18.0557248 C55.4802223,18.0557248 54.7903659,17.7487552 54.2160271,17.1348069 C53.6416883,16.5208585 53.3545232,15.7847916 53.3545232,14.9265842 C53.3545232,14.08158 53.6350868,13.3752199 54.1962224,12.8074826 C54.757358,12.2397454 55.4538159,11.9558811 56.2856169,11.9558811 Z" id="0-0"></path>
                        </g>
                    </g>
                </g>
            </g>
        </g>
    </g>
</svg>