<?xml version="1.0" encoding="UTF-8"?>
<svg width="119px" height="194px" viewBox="0 0 119 194" version="1.1" xmlns="http://www.w3.org/2000/svg" xmlns:xlink="http://www.w3.org/1999/xlink">
    <!-- Generator: Sketch 43.2 (39069) - http://www.bohemiancoding.com/sketch -->
    <title>lab0x0-vertical-en</title>
    <desc>Created with Sketch.</desc>
    <defs></defs>
    <g id="Page-1" stroke="none" stroke-width="1" fill="none" fill-rule="evenodd">
        <g id="logos" transform="translate(-701.000000, -160.000000)">
            <g id="normal-size" transform="translate(29.000000, 28.000000)">
                <g id="vertical" transform="translate(665.000000, 96.000000)">
                    <g id="vertical-en" transform="translate(7.000000, 36.000000)">
                        <rect id="Rectangle-Copy" fill="#000000" x="0" y="0" width="119" height="194"></rect>
                        <g id="Group" transform="translate(53.000000, 92.000000)" fill="#FFFFFF">
                            <path d="M9.56419532,13.8388512 L6.95161049,9.99914319 L4.2730513,13.8388512 C3.88599976,14.3754454 3.55833036,14.7580929 3.29003327,14.9868051 C3.02173618,15.2155174 2.68087204,15.3298718 2.26743063,15.3298718 C1.81000608,15.3298718 1.42076122,15.1869288 1.09968438,14.9010385 C0.778607534,14.6151481 0.618071519,14.2874787 0.618071519,13.9180204 C0.618071519,13.5397655 0.86437335,12.9987811 1.3569844,12.2950511 L4.616118,7.62406607 L1.72644084,3.73157858 C1.22503316,3.08942489 0.974333086,2.53084752 0.974333086,2.05582973 C0.974333086,1.68637144 1.12387348,1.36529941 1.42295876,1.09260401 C1.72204404,0.819908605 2.11348802,0.683562949 2.59730245,0.683562949 C3.01954049,0.683562949 3.36920112,0.802315617 3.64629484,1.03982452 C3.92338856,1.27733342 4.24665971,1.65118441 4.616118,2.16138871 L6.95161049,5.35454794 L9.22112862,2.16138871 C9.59938354,1.63359116 9.92705294,1.25534192 10.2041467,1.02662964 C10.4812404,0.79791737 10.8265028,0.683562949 11.2399442,0.683562949 C11.714962,0.683562949 12.1086051,0.817709482 12.4208853,1.08600657 C12.7331655,1.35430366 12.8893033,1.67757481 12.8893033,2.05582973 C12.8893033,2.32852513 12.8255287,2.59022082 12.6979776,2.84092466 C12.5704265,3.0916285 12.3747046,3.38851017 12.1108058,3.73157858 L9.22112862,7.62406607 L12.4802622,12.2950511 C12.9904665,13.025171 13.2455648,13.5749519 13.2455648,13.9444102 C13.2455648,14.3226651 13.087228,14.6481354 12.7705494,14.9208308 C12.4538709,15.1935262 12.0624269,15.3298718 11.5962057,15.3298718 C11.1827643,15.3298718 10.8331037,15.2111192 10.5472133,14.9736103 C10.261323,14.7361014 9.9336536,14.3578521 9.56419532,13.8388512 Z" id="x-copy"></path>
                        </g>
                        <path d="M36.1994695,84.5208594 C39.1569843,84.5208594 41.4311998,85.7916474 43.0221843,88.3332617 C44.6131688,90.874876 45.4086492,94.4429848 45.4086492,99.0376953 C45.4086492,103.487171 44.6362741,107.015671 43.0915007,109.623301 C41.5467274,112.230931 39.2494066,113.534727 36.1994695,113.534727 C33.2551579,113.534727 30.9842431,112.267239 29.386657,109.732227 C27.7890709,107.197214 26.9902898,103.632406 26.9902898,99.0376953 C26.9902898,94.5750167 27.7659656,91.0399154 29.3173406,88.4322852 C30.8687155,85.8246549 33.1627355,84.5208594 36.1994695,84.5208594 Z M36.1994695,110.682852 C38.1535417,110.682852 39.6025702,109.755341 40.5465984,107.900293 C41.4906265,106.045245 41.9626335,103.091075 41.9626335,99.0376953 C41.9626335,94.9711125 41.4906265,92.0169428 40.5465984,90.1750977 C39.6025702,88.3332525 38.1535417,87.4123437 36.1994695,87.4123437 C34.2718036,87.4123437 32.8326773,88.3563577 31.8820476,90.2444141 C30.9314178,92.1324704 30.4561101,95.0635348 30.4561101,99.0376953 C30.4561101,103.064669 30.9281171,106.012237 31.8721452,107.880488 C32.8161734,109.74874 34.2586004,110.682852 36.1994695,110.682852 Z M36.1202507,96.0669922 C36.9520518,96.0669922 37.6551111,96.3541573 38.2294499,96.9284961 C38.8037887,97.5028349 39.0909538,98.2058943 39.0909538,99.0376953 C39.0909538,99.8959027 38.800488,100.63197 38.2195476,101.245918 C37.6386072,101.859866 36.9388486,102.166836 36.1202507,102.166836 C35.3148561,102.166836 34.6249997,101.859866 34.0506609,101.245918 C33.4763221,100.63197 33.189157,99.8959027 33.189157,99.0376953 C33.189157,98.1926911 33.4697206,97.486331 34.0308562,96.9185937 C34.5919918,96.3508565 35.2884497,96.0669922 36.1202507,96.0669922 Z M82.8553532,84.5208594 C85.812868,84.5208594 88.0870836,85.7916474 89.6780681,88.3332617 C91.2690526,90.874876 92.0645329,94.4429848 92.0645329,99.0376953 C92.0645329,103.487171 91.2921578,107.015671 89.7473845,109.623301 C88.2026111,112.230931 85.9052904,113.534727 82.8553532,113.534727 C79.9110417,113.534727 77.6401269,112.267239 76.0425407,109.732227 C74.4449546,107.197214 73.6461736,103.632406 73.6461736,99.0376953 C73.6461736,94.5750167 74.4218494,91.0399154 75.9732243,88.4322852 C77.5245993,85.8246549 79.8186193,84.5208594 82.8553532,84.5208594 Z M82.8553532,110.682852 C84.8094255,110.682852 86.258454,109.755341 87.2024822,107.900293 C88.1465103,106.045245 88.6185173,103.091075 88.6185173,99.0376953 C88.6185173,94.9711125 88.1465103,92.0169428 87.2024822,90.1750977 C86.258454,88.3332525 84.8094255,87.4123437 82.8553532,87.4123437 C80.9276874,87.4123437 79.4885611,88.3563577 78.5379314,90.2444141 C77.5873016,92.1324704 77.1119939,95.0635348 77.1119939,99.0376953 C77.1119939,103.064669 77.5840009,106.012237 78.528029,107.880488 C79.4720572,109.74874 80.9144842,110.682852 82.8553532,110.682852 Z M82.7761345,96.0669922 C83.6079355,96.0669922 84.3109949,96.3541573 84.8853337,96.9284961 C85.4596725,97.5028349 85.7468376,98.2058943 85.7468376,99.0376953 C85.7468376,99.8959027 85.4563718,100.63197 84.8754314,101.245918 C84.294491,101.859866 83.5947323,102.166836 82.7761345,102.166836 C81.9707398,102.166836 81.2808835,101.859866 80.7065447,101.245918 C80.1322058,100.63197 79.8450407,99.8959027 79.8450407,99.0376953 C79.8450407,98.1926911 80.1256043,97.486331 80.68674,96.9185937 C81.2478756,96.3508565 81.9443335,96.0669922 82.7761345,96.0669922 Z" id="0-0" fill="#FFFFFF"></path>
                        <path d="M45.1945801,72 L31.3195801,72 L31.3195801,46.5083008 L34.2824707,46.5083008 L34.2824707,69.4165039 L45.1945801,69.4165039 L45.1945801,72 Z M70.1442871,72 L67.0368652,72 L64.2185059,63.0751953 L55.8537598,63.0751953 L52.9992676,72 L49.9279785,72 L58.2565918,46.5083008 L61.8156738,46.5083008 L70.1442871,72 Z M63.3693848,60.4916992 L60.0270996,49.940918 L56.7028809,60.4916992 L63.3693848,60.4916992 Z M85.2658691,58.0166016 C86.9641198,58.4140645 88.2949984,59.1848901 89.2585449,60.3291016 C90.2220914,61.473313 90.7038574,62.834302 90.7038574,64.4121094 C90.7038574,66.7246209 89.8637779,68.5673759 88.1835938,69.9404297 C86.5034096,71.3134834 84.4830033,72 82.1223145,72 L74.8776855,72 L74.8776855,46.5083008 L81.9416504,46.5083008 C84.3986939,46.5083008 86.3197359,47.0472765 87.704834,48.1252441 C89.0899321,49.2032118 89.7824707,50.7237858 89.7824707,52.6870117 C89.7824707,53.8914448 89.3820027,54.9633742 88.5810547,55.902832 C87.7801067,56.8422899 86.6750559,57.5227844 85.2658691,57.9443359 L85.2658691,58.0166016 Z M77.8405762,56.6435547 L81.3093262,56.6435547 C84.9346698,56.6435547 86.7473145,55.3488085 86.7473145,52.7592773 C86.7473145,51.5789329 86.3016809,50.6726106 85.4104004,50.0402832 C84.5191199,49.4079558 83.2123296,49.0917969 81.4899902,49.0917969 L77.8405762,49.0917969 L77.8405762,56.6435547 Z M77.8405762,69.4165039 L81.2009277,69.4165039 C83.1641537,69.4165039 84.7208601,68.9708703 85.8710938,68.0795898 C87.0213274,67.1883093 87.5964355,65.9658281 87.5964355,64.4121094 C87.5964355,62.762036 87.0303605,61.4853561 85.8981934,60.5820312 C84.7660262,59.6787064 83.1280218,59.2270508 80.9841309,59.2270508 L77.8405762,59.2270508 L77.8405762,69.4165039 Z M39.2285156,129.044922 L29.3994141,145.905273 L39.0527344,145.905273 L39.0527344,148 L26.6601562,148 L26.6601562,146.31543 L36.4453125,129.425781 L27.0849609,129.425781 L27.0849609,127.331055 L39.2285156,127.331055 L39.2285156,129.044922 Z M56.5429688,148 L45.7470703,148 L45.7470703,127.331055 L56.4550781,127.331055 L56.4550781,129.425781 L48.1494141,129.425781 L48.1494141,135.827148 L56.1328125,135.827148 L56.1328125,137.921875 L48.1494141,137.921875 L48.1494141,145.905273 L56.5429688,145.905273 L56.5429688,148 Z M77.1972656,148 L74.1943359,148 L68.1298828,138.610352 L65.4638672,138.610352 L65.4638672,148 L63.0615234,148 L63.0615234,127.331055 L68.90625,127.331055 C70.8691504,127.331055 72.4194279,127.807124 73.5571289,128.759277 C74.6948299,129.711431 75.2636719,131.037101 75.2636719,132.736328 C75.2636719,133.9961 74.848637,135.116694 74.0185547,136.098145 C73.1884724,137.079595 72.0459057,137.746092 70.5908203,138.097656 L77.1972656,148 Z M65.4638672,136.515625 L68.4960938,136.515625 C69.7656313,136.515625 70.7958945,136.17139 71.5869141,135.48291 C72.3779336,134.79443 72.7734375,133.92774 72.7734375,132.882812 C72.7734375,130.578113 71.3672016,129.425781 68.5546875,129.425781 L65.4638672,129.425781 L65.4638672,136.515625 Z M86.9677734,126.935547 C89.2822381,126.935547 91.0473572,127.851065 92.2631836,129.682129 C93.47901,131.513193 94.0869141,134.17674 94.0869141,137.672852 C94.0869141,141.149431 93.4814514,143.805655 92.2705078,145.641602 C91.0595643,147.477548 89.2920038,148.395508 86.9677734,148.395508 C84.6630744,148.395508 82.9028381,147.47999 81.6870117,145.648926 C80.4711853,143.817862 79.8632812,141.159197 79.8632812,137.672852 C79.8632812,134.186506 80.4687439,131.5254 81.6796875,129.689453 C82.8906311,127.853506 84.6533087,126.935547 86.9677734,126.935547 Z M86.9677734,146.286133 C90.0146637,146.286133 91.5380859,143.415068 91.5380859,137.672852 C91.5380859,131.92087 90.0146637,129.044922 86.9677734,129.044922 C85.483391,129.044922 84.3530312,129.789543 83.5766602,131.278809 C82.8002891,132.768074 82.4121094,134.8994 82.4121094,137.672852 C82.4121094,140.4756 82.7978477,142.611809 83.5693359,144.081543 C84.3408242,145.551277 85.4736253,146.286133 86.9677734,146.286133 Z" id="LAB-ZERO" fill="#FFFFFF"></path>
                    </g>
                </g>
            </g>
        </g>
    </g>
</svg>