<?xml version="1.0" encoding="UTF-8"?>
<svg width="120px" height="119px" viewBox="0 0 120 119" version="1.1" xmlns="http://www.w3.org/2000/svg" xmlns:xlink="http://www.w3.org/1999/xlink">
    <!-- Generator: Sketch 43.2 (39069) - http://www.bohemiancoding.com/sketch -->
    <title>lab0x0-small-circle-en</title>
    <desc>Created with Sketch.</desc>
    <defs></defs>
    <g id="Page-1" stroke="none" stroke-width="1" fill="none" fill-rule="evenodd">
        <g id="logos" transform="translate(-914.000000, -146.000000)">
            <g id="small-size" transform="translate(889.000000, 28.000000)">
                <g id="Group-2-Copy" transform="translate(10.000000, 74.000000)">
                    <g id="small-circle-en" transform="translate(15.206897, 44.000000)">
                        <circle id="Oval" fill="#000000" cx="59.5" cy="59.5" r="59.5"></circle>
                        <path d="M47.0951538,92 L34.7201538,92 L34.7201538,69.2641602 L37.3627319,69.2641602 L37.3627319,89.6958008 L47.0951538,89.6958008 L47.0951538,92 Z M69.3475952,92 L66.5761108,92 L64.062439,84.0400391 L56.6019897,84.0400391 L54.0560913,92 L51.3168335,92 L58.7450562,69.2641602 L61.9193726,69.2641602 L69.3475952,92 Z M63.3051147,81.7358398 L60.3241577,72.3256836 L57.359314,81.7358398 L63.3051147,81.7358398 Z M82.8344116,79.5283203 C84.3490676,79.8828143 85.5360675,80.5703074 86.3954468,81.5908203 C87.2548261,82.6113332 87.6845093,83.8251883 87.6845093,85.2324219 C87.6845093,87.2949322 86.9352492,88.9384704 85.4367065,90.1630859 C83.9381639,91.3877014 82.13618,92 80.0307007,92 L73.5692749,92 L73.5692749,69.2641602 L79.8695679,69.2641602 C82.0609851,69.2641602 83.7743469,69.7448682 85.0097046,70.7062988 C86.2450623,71.6677294 86.8627319,73.023917 86.8627319,74.7749023 C86.8627319,75.8491265 86.5055578,76.8051716 85.7911987,77.6430664 C85.0768397,78.4809612 84.0912538,79.0878887 82.8344116,79.4638672 L82.8344116,79.5283203 Z M76.211853,78.3037109 L79.305603,78.3037109 C82.5390176,78.3037109 84.1557007,77.1489373 84.1557007,74.8393555 C84.1557007,73.7866158 83.7582437,72.9782743 82.9633179,72.4143066 C82.168392,71.850339 81.0028763,71.5683594 79.4667358,71.5683594 L76.211853,71.5683594 L76.211853,78.3037109 Z M76.211853,89.6958008 L79.2089233,89.6958008 C80.9599087,89.6958008 82.3483225,89.2983438 83.3742065,88.503418 C84.4000906,87.7084921 84.9130249,86.618171 84.9130249,85.2324219 C84.9130249,83.7607348 84.4081471,82.6220743 83.3983765,81.8164062 C82.3886058,81.0107382 80.9276829,80.6079102 79.015564,80.6079102 L76.211853,80.6079102 L76.211853,89.6958008 Z" id="LAB" fill="#FFFFFF"></path>
                        <g id="Group" transform="translate(27.909091, 30.111111)" fill="#FFFFFF">
                            <path d="M35.5641953,21.8388512 L32.9516105,17.9991432 L30.2730513,21.8388512 C29.8859998,22.3754454 29.5583304,22.7580929 29.2900333,22.9868051 C29.0217362,23.2155174 28.680872,23.3298718 28.2674306,23.3298718 C27.8100061,23.3298718 27.4207612,23.1869288 27.0996844,22.9010385 C26.7786075,22.6151481 26.6180715,22.2874787 26.6180715,21.9180204 C26.6180715,21.5397655 26.8643733,20.9987811 27.3569844,20.2950511 L30.616118,15.6240661 L27.7264408,11.7315786 C27.2250332,11.0894249 26.9743331,10.5308475 26.9743331,10.0558297 C26.9743331,9.68637144 27.1238735,9.36529941 27.4229588,9.09260401 C27.722044,8.81990861 28.113488,8.68356295 28.5973024,8.68356295 C29.0195405,8.68356295 29.3692011,8.80231562 29.6462948,9.03982452 C29.9233886,9.27733342 30.2466597,9.65118441 30.616118,10.1613887 L32.9516105,13.3545479 L35.2211286,10.1613887 C35.5993835,9.63359116 35.9270529,9.25534192 36.2041467,9.02662964 C36.4812404,8.79791737 36.8265028,8.68356295 37.2399442,8.68356295 C37.714962,8.68356295 38.1086051,8.81770948 38.4208853,9.08600657 C38.7331655,9.35430366 38.8893033,9.67757481 38.8893033,10.0558297 C38.8893033,10.3285251 38.8255287,10.5902208 38.6979776,10.8409247 C38.5704265,11.0916285 38.3747046,11.3885102 38.1108058,11.7315786 L35.2211286,15.6240661 L38.4802622,20.2950511 C38.9904665,21.025171 39.2455648,21.5749519 39.2455648,21.9444102 C39.2455648,22.3226651 39.087228,22.6481354 38.7705494,22.9208308 C38.4538709,23.1935262 38.0624269,23.3298718 37.5962057,23.3298718 C37.1827643,23.3298718 36.8331037,23.2111192 36.5472133,22.9736103 C36.261323,22.7361014 35.9336536,22.3578521 35.5641953,21.8388512 Z" id="x-copy"></path>
                            <path d="M9.21798041,0.409748264 C12.1754952,0.409748264 14.4497107,1.68053634 16.0406953,4.22215061 C17.6316798,6.76376488 18.4271601,10.3318737 18.4271601,14.9265842 C18.4271601,19.3760596 17.654785,22.9045594 16.1100117,25.5121897 C14.5652383,28.1198199 12.2679175,29.4236155 9.21798041,29.4236155 C6.27366881,29.4236155 4.00275402,28.1561281 2.40516791,25.6211155 C0.807581794,23.0861028 0.00880071943,19.5212947 0.00880071943,14.9265842 C0.00880071943,10.4639056 0.784476556,6.92880427 2.3358515,4.32117405 C3.88722645,1.71354382 6.18124647,0.409748264 9.21798041,0.409748264 Z M9.21798041,26.5717405 C11.1720527,26.5717405 12.6210812,25.6442302 13.5651093,23.7891819 C14.5091375,21.9341335 14.9811445,18.9799638 14.9811445,14.9265842 C14.9811445,10.8600014 14.5091375,7.90583169 13.5651093,6.06398655 C12.6210812,4.2221414 11.1720527,3.30123264 9.21798041,3.30123264 C7.29031452,3.30123264 5.85118829,4.24524664 4.90055853,6.13330295 C3.94992878,8.02135927 3.47462103,10.9524237 3.47462103,14.9265842 C3.47462103,18.9535575 3.94662803,21.9011256 4.89065619,23.7693772 C5.83468435,25.6376287 7.27711133,26.5717405 9.21798041,26.5717405 Z M9.13876166,11.9558811 C9.97056269,11.9558811 10.6736221,12.2430462 11.2479609,12.817385 C11.8222997,13.3917238 12.1094648,14.0947832 12.1094648,14.9265842 C12.1094648,15.7847916 11.8189989,16.5208585 11.2380585,17.1348069 C10.6571181,17.7487552 9.9573595,18.0557248 9.13876166,18.0557248 C8.333367,18.0557248 7.64351062,17.7487552 7.06917181,17.1348069 C6.494833,16.5208585 6.20766791,15.7847916 6.20766791,14.9265842 C6.20766791,14.08158 6.48823151,13.3752199 7.04936713,12.8074826 C7.61050274,12.2397454 8.30696062,11.9558811 9.13876166,11.9558811 Z M55.8738642,0.409748264 C58.831379,0.409748264 61.1055945,1.68053634 62.696579,4.22215061 C64.2875635,6.76376488 65.0830439,10.3318737 65.0830439,14.9265842 C65.0830439,19.3760596 64.3106688,22.9045594 62.7658954,25.5121897 C61.2211221,28.1198199 58.9238013,29.4236155 55.8738642,29.4236155 C52.9295526,29.4236155 50.6586378,28.1561281 49.0610517,25.6211155 C47.4634656,23.0861028 46.6646845,19.5212947 46.6646845,14.9265842 C46.6646845,10.4639056 47.4403603,6.92880427 48.9917353,4.32117405 C50.5431102,1.71354382 52.8371303,0.409748264 55.8738642,0.409748264 Z M55.8738642,26.5717405 C57.8279365,26.5717405 59.2769649,25.6442302 60.2209931,23.7891819 C61.1650213,21.9341335 61.6370282,18.9799638 61.6370282,14.9265842 C61.6370282,10.8600014 61.1650213,7.90583169 60.2209931,6.06398655 C59.2769649,4.2221414 57.8279365,3.30123264 55.8738642,3.30123264 C53.9461983,3.30123264 52.5070721,4.24524664 51.5564423,6.13330295 C50.6058126,8.02135927 50.1305048,10.9524237 50.1305048,14.9265842 C50.1305048,18.9535575 50.6025118,21.9011256 51.54654,23.7693772 C52.4905681,25.6376287 53.9329951,26.5717405 55.8738642,26.5717405 Z M55.7946454,11.9558811 C56.6264465,11.9558811 57.3295058,12.2430462 57.9038447,12.817385 C58.4781835,13.3917238 58.7653486,14.0947832 58.7653486,14.9265842 C58.7653486,15.7847916 58.4748827,16.5208585 57.8939423,17.1348069 C57.3130019,17.7487552 56.6132433,18.0557248 55.7946454,18.0557248 C54.9892508,18.0557248 54.2993944,17.7487552 53.7250556,17.1348069 C53.1507168,16.5208585 52.8635517,15.7847916 52.8635517,14.9265842 C52.8635517,14.08158 53.1441153,13.3752199 53.7052509,12.8074826 C54.2663865,12.2397454 54.9628444,11.9558811 55.7946454,11.9558811 Z" id="0-0"></path>
                        </g>
                    </g>
                </g>
            </g>
        </g>
    </g>
</svg>