<?xml version="1.0" encoding="UTF-8"?>
<svg width="307px" height="119px" viewBox="0 0 307 119" version="1.1" xmlns="http://www.w3.org/2000/svg" xmlns:xlink="http://www.w3.org/1999/xlink">
    <!-- Generator: Sketch 43.2 (39069) - http://www.bohemiancoding.com/sketch -->
    <title>lab0x0-horisontal-en</title>
    <desc>Created with Sketch.</desc>
    <defs></defs>
    <g id="Page-1" stroke="none" stroke-width="1" fill="none" fill-rule="evenodd">
        <g id="logos" transform="translate(-349.000000, -190.000000)">
            <g id="normal-size" transform="translate(29.000000, 28.000000)">
                <g id="horisontal" transform="translate(320.000000, 124.000000)">
                    <g id="horisontal-en" transform="translate(0.000000, 38.000000)">
                        <polygon id="Rectangle-Copy-3" fill="#000000" points="0 0 307 0 307 67.8320312 307 119 0 119"></polygon>
                        <g id="Group" transform="translate(89.909091, 45.111111)" fill="#FFFFFF">
                            <path d="M55.5641953,21.8388512 L52.9516105,17.9991432 L50.2730513,21.8388512 C49.8859998,22.3754454 49.5583304,22.7580929 49.2900333,22.9868051 C49.0217362,23.2155174 48.680872,23.3298718 48.2674306,23.3298718 C47.8100061,23.3298718 47.4207612,23.1869288 47.0996844,22.9010385 C46.7786075,22.6151481 46.6180715,22.2874787 46.6180715,21.9180204 C46.6180715,21.5397655 46.8643733,20.9987811 47.3569844,20.2950511 L50.616118,15.6240661 L47.7264408,11.7315786 C47.2250332,11.0894249 46.9743331,10.5308475 46.9743331,10.0558297 C46.9743331,9.68637144 47.1238735,9.36529941 47.4229588,9.09260401 C47.722044,8.81990861 48.113488,8.68356295 48.5973024,8.68356295 C49.0195405,8.68356295 49.3692011,8.80231562 49.6462948,9.03982452 C49.9233886,9.27733342 50.2466597,9.65118441 50.616118,10.1613887 L52.9516105,13.3545479 L55.2211286,10.1613887 C55.5993835,9.63359116 55.9270529,9.25534192 56.2041467,9.02662964 C56.4812404,8.79791737 56.8265028,8.68356295 57.2399442,8.68356295 C57.714962,8.68356295 58.1086051,8.81770948 58.4208853,9.08600657 C58.7331655,9.35430366 58.8893033,9.67757481 58.8893033,10.0558297 C58.8893033,10.3285251 58.8255287,10.5902208 58.6979776,10.8409247 C58.5704265,11.0916285 58.3747046,11.3885102 58.1108058,11.7315786 L55.2211286,15.6240661 L58.4802622,20.2950511 C58.9904665,21.025171 59.2455648,21.5749519 59.2455648,21.9444102 C59.2455648,22.3226651 59.087228,22.6481354 58.7705494,22.9208308 C58.4538709,23.1935262 58.0624269,23.3298718 57.5962057,23.3298718 C57.1827643,23.3298718 56.8331037,23.2111192 56.5472133,22.9736103 C56.261323,22.7361014 55.9336536,22.3578521 55.5641953,21.8388512 Z" id="x-copy"></path>
                            <path d="M95.05,15.5183365 L94,15.5183365 L94,14.4683366 L95.05,14.4683366 L95.05,15.5183365 Z M104,14.4683366 L104,15.5183365 L102.95,15.5183365 L102.95,15.3852825 L104,15.3852825 L104,16.4352824 L92.976207,16.4352824 L92.976207,14.3352825 L105.05,14.3352825 L105.05,16.5683365 L92.95,16.5683365 L92.95,14.3352825 L95.05,14.3352825 L95.05,14.4683366 L104,14.4683366 Z" id="Combined-Shape" fill-rule="nonzero"></path>
                            <path d="M3.04999995,15.5183365 L2,15.5183365 L2,14.4683366 L3.04999995,14.4683366 L3.04999995,15.5183365 Z M12,14.4683366 L12,15.5183365 L10.95,15.5183365 L10.95,15.3852825 L12,15.3852825 L12,16.4352824 L0.97620696,16.4352824 L0.97620696,14.3352825 L13.05,14.3352825 L13.05,16.5683365 L0.950000048,16.5683365 L0.950000048,14.3352825 L3.04999995,14.3352825 L3.04999995,14.4683366 L12,14.4683366 Z" id="Combined-Shape" fill-rule="nonzero"></path>
                            <path d="M29.2179804,0.409748264 C32.1754952,0.409748264 34.4497107,1.68053634 36.0406953,4.22215061 C37.6316798,6.76376488 38.4271601,10.3318737 38.4271601,14.9265842 C38.4271601,19.3760596 37.654785,22.9045594 36.1100117,25.5121897 C34.5652383,28.1198199 32.2679175,29.4236155 29.2179804,29.4236155 C26.2736688,29.4236155 24.002754,28.1561281 22.4051679,25.6211155 C20.8075818,23.0861028 20.0088007,19.5212947 20.0088007,14.9265842 C20.0088007,10.4639056 20.7844766,6.92880427 22.3358515,4.32117405 C23.8872264,1.71354382 26.1812465,0.409748264 29.2179804,0.409748264 Z M29.2179804,26.5717405 C31.1720527,26.5717405 32.6210812,25.6442302 33.5651093,23.7891819 C34.5091375,21.9341335 34.9811445,18.9799638 34.9811445,14.9265842 C34.9811445,10.8600014 34.5091375,7.90583169 33.5651093,6.06398655 C32.6210812,4.2221414 31.1720527,3.30123264 29.2179804,3.30123264 C27.2903145,3.30123264 25.8511883,4.24524664 24.9005585,6.13330295 C23.9499288,8.02135927 23.474621,10.9524237 23.474621,14.9265842 C23.474621,18.9535575 23.946628,21.9011256 24.8906562,23.7693772 C25.8346843,25.6376287 27.2771113,26.5717405 29.2179804,26.5717405 Z M29.1387617,11.9558811 C29.9705627,11.9558811 30.6736221,12.2430462 31.2479609,12.817385 C31.8222997,13.3917238 32.1094648,14.0947832 32.1094648,14.9265842 C32.1094648,15.7847916 31.8189989,16.5208585 31.2380585,17.1348069 C30.6571181,17.7487552 29.9573595,18.0557248 29.1387617,18.0557248 C28.333367,18.0557248 27.6435106,17.7487552 27.0691718,17.1348069 C26.494833,16.5208585 26.2076679,15.7847916 26.2076679,14.9265842 C26.2076679,14.08158 26.4882315,13.3752199 27.0493671,12.8074826 C27.6105027,12.2397454 28.3069606,11.9558811 29.1387617,11.9558811 Z M75.8738642,0.409748264 C78.831379,0.409748264 81.1055945,1.68053634 82.696579,4.22215061 C84.2875635,6.76376488 85.0830439,10.3318737 85.0830439,14.9265842 C85.0830439,19.3760596 84.3106688,22.9045594 82.7658954,25.5121897 C81.2211221,28.1198199 78.9238013,29.4236155 75.8738642,29.4236155 C72.9295526,29.4236155 70.6586378,28.1561281 69.0610517,25.6211155 C67.4634656,23.0861028 66.6646845,19.5212947 66.6646845,14.9265842 C66.6646845,10.4639056 67.4403603,6.92880427 68.9917353,4.32117405 C70.5431102,1.71354382 72.8371303,0.409748264 75.8738642,0.409748264 Z M75.8738642,26.5717405 C77.8279365,26.5717405 79.2769649,25.6442302 80.2209931,23.7891819 C81.1650213,21.9341335 81.6370282,18.9799638 81.6370282,14.9265842 C81.6370282,10.8600014 81.1650213,7.90583169 80.2209931,6.06398655 C79.2769649,4.2221414 77.8279365,3.30123264 75.8738642,3.30123264 C73.9461983,3.30123264 72.5070721,4.24524664 71.5564423,6.13330295 C70.6058126,8.02135927 70.1305048,10.9524237 70.1305048,14.9265842 C70.1305048,18.9535575 70.6025118,21.9011256 71.54654,23.7693772 C72.4905681,25.6376287 73.9329951,26.5717405 75.8738642,26.5717405 Z M75.7946454,11.9558811 C76.6264465,11.9558811 77.3295058,12.2430462 77.9038447,12.817385 C78.4781835,13.3917238 78.7653486,14.0947832 78.7653486,14.9265842 C78.7653486,15.7847916 78.4748827,16.5208585 77.8939423,17.1348069 C77.3130019,17.7487552 76.6132433,18.0557248 75.7946454,18.0557248 C74.9892508,18.0557248 74.2993944,17.7487552 73.7250556,17.1348069 C73.1507168,16.5208585 72.8635517,15.7847916 72.8635517,14.9265842 C72.8635517,14.08158 73.1441153,13.3752199 73.7052509,12.8074826 C74.2663865,12.2397454 74.9628444,11.9558811 75.7946454,11.9558811 Z" id="0-0"></path>
                        </g>
                        <path d="M36.8847656,74 L22.2597656,74 L22.2597656,47.1303711 L25.3828125,47.1303711 L25.3828125,71.2768555 L36.8847656,71.2768555 L36.8847656,74 Z M63.1831055,74 L59.9077148,74 L56.9370117,64.5927734 L48.1201172,64.5927734 L45.1113281,74 L41.8740234,74 L50.652832,47.1303711 L54.4042969,47.1303711 L63.1831055,74 Z M56.0419922,61.8696289 L52.519043,50.7485352 L49.0151367,61.8696289 L56.0419922,61.8696289 Z M79.1220703,59.2607422 C80.9121183,59.6796896 82.3149363,60.4921815 83.3305664,61.6982422 C84.3461965,62.9043029 84.8540039,64.3388589 84.8540039,66.0019531 C84.8540039,68.4394653 83.9685147,70.3818287 82.1975098,71.8291016 C80.4265048,73.2763744 78.2968874,74 75.8085938,74 L68.1723633,74 L68.1723633,47.1303711 L75.6181641,47.1303711 C78.2080208,47.1303711 80.2329029,47.6984806 81.6928711,48.8347168 C83.1528393,49.9709529 83.8828125,51.5737201 83.8828125,53.6430664 C83.8828125,54.912604 83.4606976,56.0424755 82.6164551,57.0327148 C81.7722126,58.0229542 80.6074293,58.7402322 79.1220703,59.1845703 L79.1220703,59.2607422 Z M71.2954102,57.8134766 L74.9516602,57.8134766 C78.7729683,57.8134766 80.6835938,56.4487441 80.6835938,53.7192383 C80.6835938,52.4750914 80.2138719,51.5197787 79.2744141,50.8532715 C78.3349562,50.1867642 76.9575286,49.8535156 75.1420898,49.8535156 L71.2954102,49.8535156 L71.2954102,57.8134766 Z M71.2954102,71.2768555 L74.8374023,71.2768555 C76.9067486,71.2768555 78.5476014,70.8071336 79.7600098,69.8676758 C80.9724182,68.928218 81.5786133,67.6396566 81.5786133,66.0019531 C81.5786133,64.2626866 80.9819396,62.9169969 79.7885742,61.9648438 C78.5952089,61.0126906 76.8686636,60.5366211 74.6088867,60.5366211 L71.2954102,60.5366211 L71.2954102,71.2768555 Z M215.804688,49.3583984 L203.026855,71.2768555 L215.576172,71.2768555 L215.576172,74 L199.46582,74 L199.46582,71.8100586 L212.186523,49.8535156 L200.018066,49.8535156 L200.018066,47.1303711 L215.804688,47.1303711 L215.804688,49.3583984 Z M238.313477,74 L224.278809,74 L224.278809,47.1303711 L238.199219,47.1303711 L238.199219,49.8535156 L227.401855,49.8535156 L227.401855,58.175293 L237.780273,58.175293 L237.780273,60.8984375 L227.401855,60.8984375 L227.401855,71.2768555 L238.313477,71.2768555 L238.313477,74 Z M265.164062,74 L261.260254,74 L253.376465,61.793457 L249.910645,61.793457 L249.910645,74 L246.787598,74 L246.787598,47.1303711 L254.385742,47.1303711 C256.937513,47.1303711 258.952873,47.7492614 260.431885,48.9870605 C261.910896,50.2248597 262.650391,51.9482311 262.650391,54.1572266 C262.650391,55.7949301 262.110845,57.2517026 261.031738,58.5275879 C259.952631,59.8034732 258.467295,60.6699196 256.575684,61.1269531 L265.164062,74 Z M249.910645,59.0703125 L253.852539,59.0703125 C255.502938,59.0703125 256.84228,58.6228072 257.870605,57.7277832 C258.898931,56.8327592 259.413086,55.7060615 259.413086,54.3476562 C259.413086,51.3515475 257.584979,49.8535156 253.928711,49.8535156 L249.910645,49.8535156 L249.910645,59.0703125 Z M277.865723,46.6162109 C280.874527,46.6162109 283.169182,47.8063846 284.749756,50.1867676 C286.33033,52.5671506 287.120605,56.0297624 287.120605,60.574707 C287.120605,65.0942609 286.333504,68.5473513 284.759277,70.934082 C283.185051,73.3208127 280.887222,74.5141602 277.865723,74.5141602 C274.869614,74.5141602 272.581307,73.3239865 271.000732,70.9436035 C269.420158,68.5632205 268.629883,65.1069563 268.629883,60.574707 C268.629883,56.0424578 269.416984,52.5830197 270.991211,50.1962891 C272.565438,47.8095584 274.856919,46.6162109 277.865723,46.6162109 Z M277.865723,71.7719727 C281.82668,71.7719727 283.807129,68.0395881 283.807129,60.574707 C283.807129,53.0971306 281.82668,49.3583984 277.865723,49.3583984 C275.936026,49.3583984 274.466558,50.3264063 273.457275,52.2624512 C272.447993,54.198496 271.943359,56.9692203 271.943359,60.574707 C271.943359,64.2182799 272.444819,66.9953518 273.447754,68.9060059 C274.450689,70.8166599 275.92333,71.7719727 277.865723,71.7719727 Z" id="LAB-ZERO" fill="#FFFFFF"></path>
                    </g>
                </g>
            </g>
        </g>
    </g>
</svg>