<?xml version="1.0" encoding="UTF-8"?>
<svg width="251px" height="251px" viewBox="0 0 251 251" version="1.1" xmlns="http://www.w3.org/2000/svg" xmlns:xlink="http://www.w3.org/1999/xlink">
    <!-- Generator: Sketch 43.2 (39069) - http://www.bohemiancoding.com/sketch -->
    <title>lab0x0-main-en-zh</title>
    <desc>Created with Sketch.</desc>
    <defs></defs>
    <g id="Page-1" stroke="none" stroke-width="1" fill="none" fill-rule="evenodd">
        <g id="logos" transform="translate(-61.000000, -143.000000)">
            <g id="normal-size" transform="translate(29.000000, 28.000000)">
                <g id="main" transform="translate(32.000000, 67.000000)">
                    <g id="main-en-zh" transform="translate(0.000000, 48.000000)">
                        <rect id="Rectangle" fill="#000000" x="0" y="0" width="251" height="251"></rect>
                        <path d="M59.2530416,129.170119 C63.3327418,131.527279 67.0498019,134.337739 70.4948821,137.601499 L68.681682,139.596019 C65.0552819,136.332259 61.2475617,133.431139 57.2585215,130.983319 L59.2530416,129.170119 Z M62.7887818,119.106858 L62.7887818,101.156178 L31.8737205,101.156178 L31.8737205,114.211218 L28.7912804,114.211218 L28.7912804,98.4363776 L62.7887818,98.4363776 L62.7887818,90.8209373 L31.4204205,90.8209373 L31.4204205,88.1011372 L97.2395832,88.1011372 L97.2395832,90.8209373 L65.8712219,90.8209373 L65.8712219,98.4363776 L99.8687233,98.4363776 L99.8687233,114.211218 L96.7862831,114.211218 L96.7862831,101.156178 L65.8712219,101.156178 L65.8712219,119.016198 C75.1185423,126.631639 88.1735828,132.977839 105.036343,137.873479 L103.223143,140.502619 C87.0856628,135.606979 74.1212822,129.170119 64.3300018,121.192039 C53.4508014,129.170119 40.3051009,135.606979 25.0742202,140.502619 L23.2610202,137.873479 C39.2171808,132.887179 52.4535414,126.631639 62.7887818,119.106858 Z M38.4012408,108.318318 L56.3519215,108.318318 L56.3519215,110.856798 L38.4012408,110.856798 L38.4012408,108.318318 Z M38.2199208,117.293658 L56.4425815,117.293658 L56.4425815,119.832138 L38.2199208,119.832138 L38.2199208,117.293658 Z M72.4894022,108.318318 L90.1681029,108.318318 L90.1681029,110.856798 L72.4894022,110.856798 L72.4894022,108.318318 Z M72.3987422,117.293658 L90.4400829,117.293658 L90.4400829,119.832138 L72.3987422,119.832138 L72.3987422,117.293658 Z M46.9232811,150.2939 C52.9068414,152.1071 58.6184216,154.19228 64.0580218,156.36812 C71.1295021,152.5604 77.4757024,148.11806 83.0059626,143.222419 L39.0358608,143.222419 L39.0358608,140.411959 L87.0856628,140.411959 L87.0856628,142.769119 C81.2834225,148.4807 74.6652422,153.467 67.2311219,157.72802 C72.4894022,159.90386 77.5663624,162.26102 82.2806826,164.7995 L80.6488025,167.33798 C69.225642,161.08244 57.4398416,156.1868 45.2914011,152.74172 L46.9232811,150.2939 Z" id="零" fill="#FFFFFF"></path>
                        <g id="Group-7" transform="translate(154.000000, 73.000000)" fill="#FFFFFF">
                            <g id="Group" transform="translate(27.000000, 46.000000)">
                                <path d="M9.56419532,13.8388512 L6.95161049,9.99914319 L4.2730513,13.8388512 C3.88599976,14.3754454 3.55833036,14.7580929 3.29003327,14.9868051 C3.02173618,15.2155174 2.68087204,15.3298718 2.26743063,15.3298718 C1.81000608,15.3298718 1.42076122,15.1869288 1.09968438,14.9010385 C0.778607534,14.6151481 0.618071519,14.2874787 0.618071519,13.9180204 C0.618071519,13.5397655 0.86437335,12.9987811 1.3569844,12.2950511 L4.616118,7.62406607 L1.72644084,3.73157858 C1.22503316,3.08942489 0.974333086,2.53084752 0.974333086,2.05582973 C0.974333086,1.68637144 1.12387348,1.36529941 1.42295876,1.09260401 C1.72204404,0.819908605 2.11348802,0.683562949 2.59730245,0.683562949 C3.01954049,0.683562949 3.36920112,0.802315617 3.64629484,1.03982452 C3.92338856,1.27733342 4.24665971,1.65118441 4.616118,2.16138871 L6.95161049,5.35454794 L9.22112862,2.16138871 C9.59938354,1.63359116 9.92705294,1.25534192 10.2041467,1.02662964 C10.4812404,0.79791737 10.8265028,0.683562949 11.2399442,0.683562949 C11.714962,0.683562949 12.1086051,0.817709482 12.4208853,1.08600657 C12.7331655,1.35430366 12.8893033,1.67757481 12.8893033,2.05582973 C12.8893033,2.32852513 12.8255287,2.59022082 12.6979776,2.84092466 C12.5704265,3.0916285 12.3747046,3.38851017 12.1108058,3.73157858 L9.22112862,7.62406607 L12.4802622,12.2950511 C12.9904665,13.025171 13.2455648,13.5749519 13.2455648,13.9444102 C13.2455648,14.3226651 13.087228,14.6481354 12.7705494,14.9208308 C12.4538709,15.1935262 12.0624269,15.3298718 11.5962057,15.3298718 C11.1827643,15.3298718 10.8331037,15.2111192 10.5472133,14.9736103 C10.261323,14.7361014 9.9336536,14.3578521 9.56419532,13.8388512 Z" id="x-copy"></path>
                            </g>
                            <path d="M10.1994695,38.5208594 C13.1569843,38.5208594 15.4311998,39.7916474 17.0221843,42.3332617 C18.6131688,44.874876 19.4086492,48.4429848 19.4086492,53.0376953 C19.4086492,57.4871707 18.6362741,61.0156706 17.0915007,63.6233008 C15.5467274,66.230931 13.2494066,67.5347266 10.1994695,67.5347266 C7.25515787,67.5347266 4.98424308,66.2672392 3.38665697,63.7322266 C1.78907086,61.1972139 0.990289781,57.6324058 0.990289781,53.0376953 C0.990289781,48.5750167 1.76596562,45.0399154 3.31734056,42.4322852 C4.86871551,39.8246549 7.16273553,38.5208594 10.1994695,38.5208594 Z M10.1994695,64.6828516 C12.1535417,64.6828516 13.6025702,63.7553413 14.5465984,61.900293 C15.4906265,60.0452446 15.9626335,57.091075 15.9626335,53.0376953 C15.9626335,48.9711125 15.4906265,46.0169428 14.5465984,44.1750977 C13.6025702,42.3332525 12.1535417,41.4123437 10.1994695,41.4123437 C8.27180358,41.4123437 6.83267735,42.3563577 5.88204759,44.2444141 C4.93141784,46.1324704 4.45611009,49.0635348 4.45611009,53.0376953 C4.45611009,57.0646686 4.92811709,60.0122368 5.87214525,61.8804883 C6.81617341,63.7487398 8.25860039,64.6828516 10.1994695,64.6828516 Z M10.1202507,50.0669922 C10.9520518,50.0669922 11.6551111,50.3541573 12.2294499,50.9284961 C12.8037887,51.5028349 13.0909538,52.2058943 13.0909538,53.0376953 C13.0909538,53.8959027 12.800488,54.6319696 12.2195476,55.245918 C11.6386072,55.8598664 10.9388486,56.1668359 10.1202507,56.1668359 C9.31485607,56.1668359 8.62499968,55.8598664 8.05066087,55.245918 C7.47632207,54.6319696 7.18915697,53.8959027 7.18915697,53.0376953 C7.18915697,52.1926911 7.46972057,51.486331 8.03085619,50.9185937 C8.59199181,50.3508565 9.28844968,50.0669922 10.1202507,50.0669922 Z M56.8553532,38.5208594 C59.812868,38.5208594 62.0870836,39.7916474 63.6780681,42.3332617 C65.2690526,44.874876 66.0645329,48.4429848 66.0645329,53.0376953 C66.0645329,57.4871707 65.2921578,61.0156706 63.7473845,63.6233008 C62.2026111,66.230931 59.9052904,67.5347266 56.8553532,67.5347266 C53.9110417,67.5347266 51.6401269,66.2672392 50.0425407,63.7322266 C48.4449546,61.1972139 47.6461736,57.6324058 47.6461736,53.0376953 C47.6461736,48.5750167 48.4218494,45.0399154 49.9732243,42.4322852 C51.5245993,39.8246549 53.8186193,38.5208594 56.8553532,38.5208594 Z M56.8553532,64.6828516 C58.8094255,64.6828516 60.258454,63.7553413 61.2024822,61.900293 C62.1465103,60.0452446 62.6185173,57.091075 62.6185173,53.0376953 C62.6185173,48.9711125 62.1465103,46.0169428 61.2024822,44.1750977 C60.258454,42.3332525 58.8094255,41.4123437 56.8553532,41.4123437 C54.9276874,41.4123437 53.4885611,42.3563577 52.5379314,44.2444141 C51.5873016,46.1324704 51.1119939,49.0635348 51.1119939,53.0376953 C51.1119939,57.0646686 51.5840009,60.0122368 52.528029,61.8804883 C53.4720572,63.7487398 54.9144842,64.6828516 56.8553532,64.6828516 Z M56.7761345,50.0669922 C57.6079355,50.0669922 58.3109949,50.3541573 58.8853337,50.9284961 C59.4596725,51.5028349 59.7468376,52.2058943 59.7468376,53.0376953 C59.7468376,53.8959027 59.4563718,54.6319696 58.8754314,55.245918 C58.294491,55.8598664 57.5947323,56.1668359 56.7761345,56.1668359 C55.9707398,56.1668359 55.2808835,55.8598664 54.7065447,55.245918 C54.1322058,54.6319696 53.8450407,53.8959027 53.8450407,53.0376953 C53.8450407,52.1926911 54.1256043,51.486331 54.68674,50.9185937 C55.2478756,50.3508565 55.9443335,50.0669922 56.7761345,50.0669922 Z" id="0-0"></path>
                            <path d="M19.1945801,26 L5.31958008,26 L5.31958008,0.508300781 L8.2824707,0.508300781 L8.2824707,23.4165039 L19.1945801,23.4165039 L19.1945801,26 Z M44.1442871,26 L41.0368652,26 L38.2185059,17.0751953 L29.8537598,17.0751953 L26.9992676,26 L23.9279785,26 L32.2565918,0.508300781 L35.8156738,0.508300781 L44.1442871,26 Z M37.3693848,14.4916992 L34.0270996,3.94091797 L30.7028809,14.4916992 L37.3693848,14.4916992 Z M59.2658691,12.0166016 C60.9641198,12.4140645 62.2949984,13.1848901 63.2585449,14.3291016 C64.2220914,15.473313 64.7038574,16.834302 64.7038574,18.4121094 C64.7038574,20.7246209 63.8637779,22.5673759 62.1835938,23.9404297 C60.5034096,25.3134834 58.4830033,26 56.1223145,26 L48.8776855,26 L48.8776855,0.508300781 L55.9416504,0.508300781 C58.3986939,0.508300781 60.3197359,1.04727651 61.704834,2.12524414 C63.0899321,3.20321177 63.7824707,4.72378576 63.7824707,6.68701172 C63.7824707,7.89144482 63.3820027,8.96337421 62.5810547,9.90283203 C61.7801067,10.8422899 60.6750559,11.5227844 59.2658691,11.9443359 L59.2658691,12.0166016 Z M51.8405762,10.6435547 L55.3093262,10.6435547 C58.9346698,10.6435547 60.7473145,9.34880852 60.7473145,6.75927734 C60.7473145,5.5789329 60.3016809,4.67261058 59.4104004,4.0402832 C58.5191199,3.40795582 57.2123296,3.09179687 55.4899902,3.09179687 L51.8405762,3.09179687 L51.8405762,10.6435547 Z M51.8405762,23.4165039 L55.2009277,23.4165039 C57.1641537,23.4165039 58.7208601,22.9708703 59.8710938,22.0795898 C61.0213274,21.1883093 61.5964355,19.9658281 61.5964355,18.4121094 C61.5964355,16.762036 61.0303605,15.4853561 59.8981934,14.5820312 C58.7660262,13.6787064 57.1280218,13.2270508 54.9841309,13.2270508 L51.8405762,13.2270508 L51.8405762,23.4165039 Z M13.2285156,83.0449219 L3.39941406,99.9052734 L13.0527344,99.9052734 L13.0527344,102 L0.66015625,102 L0.66015625,100.31543 L10.4453125,83.4257812 L1.08496094,83.4257812 L1.08496094,81.3310547 L13.2285156,81.3310547 L13.2285156,83.0449219 Z M30.5429688,102 L19.7470703,102 L19.7470703,81.3310547 L30.4550781,81.3310547 L30.4550781,83.4257812 L22.1494141,83.4257812 L22.1494141,89.8271484 L30.1328125,89.8271484 L30.1328125,91.921875 L22.1494141,91.921875 L22.1494141,99.9052734 L30.5429688,99.9052734 L30.5429688,102 Z M51.1972656,102 L48.1943359,102 L42.1298828,92.6103516 L39.4638672,92.6103516 L39.4638672,102 L37.0615234,102 L37.0615234,81.3310547 L42.90625,81.3310547 C44.8691504,81.3310547 46.4194279,81.8071241 47.5571289,82.7592773 C48.6948299,83.7114305 49.2636719,85.0371009 49.2636719,86.7363281 C49.2636719,87.9961 48.848637,89.1166943 48.0185547,90.0981445 C47.1884724,91.0795948 46.0459057,91.746092 44.5908203,92.0976562 L51.1972656,102 Z M39.4638672,90.515625 L42.4960938,90.515625 C43.7656313,90.515625 44.7958945,90.1713902 45.5869141,89.4829102 C46.3779336,88.7944302 46.7734375,87.9277396 46.7734375,86.8828125 C46.7734375,84.5781135 45.3672016,83.4257812 42.5546875,83.4257812 L39.4638672,83.4257812 L39.4638672,90.515625 Z M60.9677734,80.9355469 C63.2822381,80.9355469 65.0473572,81.8510651 66.2631836,83.6821289 C67.47901,85.5131927 68.0869141,88.1767403 68.0869141,91.6728516 C68.0869141,95.1494314 67.4814514,97.8056549 66.2705078,99.6416016 C65.0595643,101.477548 63.2920038,102.395508 60.9677734,102.395508 C58.6630744,102.395508 56.9028381,101.47999 55.6870117,99.6489258 C54.4711853,97.8178619 53.8632812,95.1591971 53.8632812,91.6728516 C53.8632812,88.186506 54.4687439,85.5253998 55.6796875,83.6894531 C56.8906311,81.8535064 58.6533087,80.9355469 60.9677734,80.9355469 Z M60.9677734,100.286133 C64.0146637,100.286133 65.5380859,97.4150678 65.5380859,91.6728516 C65.5380859,85.9208697 64.0146637,83.0449219 60.9677734,83.0449219 C59.483391,83.0449219 58.3530312,83.7895433 57.5766602,85.2788086 C56.8002891,86.7680739 56.4121094,88.8994002 56.4121094,91.6728516 C56.4121094,94.4756 56.7978477,96.6118091 57.5693359,98.081543 C58.3408242,99.5512769 59.4736253,100.286133 60.9677734,100.286133 Z" id="LAB-ZERO"></path>
                        </g>
                        <polygon id="Line" fill="#FFFFFF" fill-rule="nonzero" points="126 61.9313627 126 189.0848 128.1 189.0848 128.1 61.9313627"></polygon>
                    </g>
                </g>
            </g>
        </g>
    </g>
</svg>