<?xml version="1.0" encoding="UTF-8"?>
<svg width="119px" height="119px" viewBox="0 0 119 119" version="1.1" xmlns="http://www.w3.org/2000/svg" xmlns:xlink="http://www.w3.org/1999/xlink">
    <!-- Generator: Sketch 43.2 (39069) - http://www.bohemiancoding.com/sketch -->
    <title>lab0x0-small-square-zh</title>
    <desc>Created with Sketch.</desc>
    <defs></defs>
    <g id="Page-1" stroke="none" stroke-width="1" fill="none" fill-rule="evenodd">
        <g id="logos" transform="translate(-1067.000000, -280.000000)">
            <g id="small-size" transform="translate(889.000000, 28.000000)">
                <g id="small-square-zh" transform="translate(178.000000, 252.000000)">
                    <rect id="Rectangle-5" fill="#000000" x="0" y="0" width="119" height="119"></rect>
                    <path d="M57.3462397,64.698 C61.3512397,67.012 65.0002397,69.771 68.3822397,72.975 L66.6022397,74.933 C63.0422397,71.729 59.3042397,68.881 55.3882397,66.478 L57.3462397,64.698 Z M60.8172397,54.819 L60.8172397,37.197 L30.4682397,37.197 L30.4682397,50.013 L27.4422397,50.013 L27.4422397,34.527 L60.8172397,34.527 L60.8172397,27.051 L30.0232397,27.051 L30.0232397,24.381 L94.6372397,24.381 L94.6372397,27.051 L63.8432397,27.051 L63.8432397,34.527 L97.2182397,34.527 L97.2182397,50.013 L94.1922397,50.013 L94.1922397,37.197 L63.8432397,37.197 L63.8432397,54.73 C72.9212397,62.206 85.7372397,68.436 102.29124,73.242 L100.51124,75.823 C84.6692397,71.017 71.9422397,64.698 62.3302397,56.866 C51.6502397,64.698 38.7452397,71.017 23.7932397,75.823 L22.0132397,73.242 C37.6772397,68.347 50.6712397,62.206 60.8172397,54.819 Z M36.8762397,44.228 L54.4982397,44.228 L54.4982397,46.72 L36.8762397,46.72 L36.8762397,44.228 Z M36.6982397,53.039 L54.5872397,53.039 L54.5872397,55.531 L36.6982397,55.531 L36.6982397,53.039 Z M70.3402397,44.228 L87.6952397,44.228 L87.6952397,46.72 L70.3402397,46.72 L70.3402397,44.228 Z M70.2512397,53.039 L87.9622397,53.039 L87.9622397,55.531 L70.2512397,55.531 L70.2512397,53.039 Z M45.2422397,85.435 C51.1162397,87.215 56.7232397,89.262 62.0632397,91.398 C69.0052397,87.66 75.2352397,83.299 80.6642397,78.493 L37.4992397,78.493 L37.4992397,75.734 L84.6692397,75.734 L84.6692397,78.048 C78.9732397,83.655 72.4762397,88.55 65.1782397,92.733 C70.3402397,94.869 75.3242397,97.183 79.9522397,99.675 L78.3502397,102.167 C67.1362397,96.026 55.5662397,91.22 43.6402397,87.838 L45.2422397,85.435 Z" id="零" fill="#FFFFFF"></path>
                </g>
            </g>
        </g>
    </g>
</svg>